<?xml version="1.0" encoding="UTF-8"?>
<svg xmlns="http://www.w3.org/2000/svg" version="1.1" xmlns:xlink="http://www.w3.org/1999/xlink" viewBox="0 0 719.3 724.8">
  <defs>
    <style>
      .cls-1 {
        fill: url(#linear-gradient-2);
      }

      .cls-2 {
        fill: url(#linear-gradient-4);
      }

      .cls-3 {
        fill: url(#linear-gradient-3);
      }

      .cls-4 {
        fill: url(#linear-gradient);
      }
    </style>
    <linearGradient id="linear-gradient" x1="223.9" y1="371.3" x2="515.9" y2="371.3" gradientUnits="userSpaceOnUse">
      <stop offset="0" stop-color="#69cfd7"/>
      <stop offset="1" stop-color="#3fffc7"/>
    </linearGradient>
    <linearGradient id="linear-gradient-2" x1="118.4" y1="371.4" x2="621.4" y2="371.4" xlink:href="#linear-gradient"/>
    <linearGradient id="linear-gradient-3" x1="60" y1="371.3" x2="679.8" y2="371.3" xlink:href="#linear-gradient"/>
    <linearGradient id="linear-gradient-4" x1="36.2" y1="371.4" x2="703.7" y2="371.4" xlink:href="#linear-gradient"/>
  </defs>
  <!-- Generator: Adobe Illustrator 28.7.1, SVG Export Plug-In . SVG Version: 1.2.0 Build 142)  -->
  <g>
    <g id="Graphic_Elements">
      <g>
        <path class="cls-4" d="M438.3,342.6c24.9,59.7,46.6,121.2,61.6,184.2,5.7,23.8,10.4,47.9,12.9,72.3,1.8,17.2,2.8,35.1-.4,52.1-1.7,9.3-5.2,21-14.7,25.2s-19-.7-26.5-5.4c-13.5-8.4-24.9-20.5-35.2-32.5-14.7-17.1-27.8-35.7-40.1-54.7-32.9-50.8-60.3-105.2-84.5-160.6s-49.6-123-66.4-187c-6.7-25.3-12.4-50.9-16.1-76.8s-4.6-38.2-3-57.3,2.8-24.5,11-32.5c6.8-6.6,16.3-5.6,24.3-2,12.8,5.7,23.6,16.1,33.1,26.1,14.5,15.2,27.2,32.2,39.1,49.5,33,48.1,60.2,100.2,84.5,153.1,7,15.3,13.7,30.7,20.2,46.2.6,1.5,3,.8,2.4-.7-24.6-58.9-52.6-116.6-86.2-170.9-12.7-20.5-26.1-40.5-41.2-59.3-11-13.7-22.9-27.2-37-37.8-8.2-6.2-18.7-12.7-29.5-11.6-9.8,1.1-15.8,9.1-19,17.8-5.3,14.2-5.3,30.3-4.7,45.2,1,22.9,4.7,45.7,9.3,68.1,12.8,62.4,33.2,123.4,56.7,182.5,24.3,61.3,52.4,121.3,85.8,178.2s26.8,43.8,42.2,64.4c11.5,15.4,23.9,30.6,38.3,43.4,13.8,12.2,39.7,29.8,53.3,7.7,7-11.3,8-26.1,8.2-39,.4-21.1-2.4-42.3-6-63.1-10.5-60.3-29.2-119.3-50.7-176.5-6.2-16.5-12.7-32.8-19.5-49.1s-3-.8-2.4.7Z"/>
        <path class="cls-1" d="M155,461.3c-13.6-32.6-23.7-66.8-29.5-101.6-5.3-32.1-7-64.8-4.3-97.2,2.5-29.5,8.7-58.8,19.6-86.3,9.9-25,23.8-48.5,42.1-68.2,17.6-18.9,39.1-34,63.2-43.3,22.3-8.7,46.3-12.4,70.2-11.3,25.1,1.1,49.8,7.2,72.9,16.7s49.1,24.9,70.7,41.9c23.5,18.6,44.6,40.1,63.1,63.6s37.3,53.4,51.5,82.7c15.4,32,27.3,65.7,35.1,100.3,7.3,32.4,11,65.7,10.3,98.9-.6,30.3-4.9,60.7-13.9,89.7s-20,51.1-36.5,72.9-35.5,38.1-58.4,50.3c-21.6,11.4-45.6,17.9-69.9,19.1-24.6,1.3-49.3-2.6-72.8-10.2-25.4-8.2-49.3-20.7-71.3-35.8-24.3-16.7-46.2-36.8-65.7-58.9s-39.4-50.4-54.7-78.4c-8-14.5-15.2-29.5-21.6-44.8s-3-.8-2.4.7c13,30.9,29,60.5,48.3,88s38.3,48.8,61.5,69.4c21.2,18.9,44.7,35.4,70.2,48s47.7,19.6,73.2,23.1c24,3.2,48.6,2,72-4.4,24.5-6.7,47.2-19,66.4-35.5,20.2-17.4,36.3-39.4,48.3-63.2,13-26,21.3-54.2,25.7-82.9s5.3-64.1,2-96.1c-3.6-34.9-11.6-69.3-23.3-102.4-11.5-32.6-26.5-64-44.8-93.3-16.8-26.9-36.5-52.1-59-74.5-20.5-20.4-43.3-38.6-68.3-53.3-22.7-13.3-47.3-23.7-73-29.4s-48.5-6.5-72.6-2.6c-24.7,4.1-48.5,13.7-69,27.9-21.6,15-39.4,34.8-53.2,57-14.9,24.1-25,51-31.3,78.6s-9.3,62.2-7.9,93.5c1.5,34.3,7.4,68.5,17,101.5,5,17.2,11,34,17.8,50.5.6,1.5,3,.8,2.4-.7Z"/>
        <path class="cls-3" d="M337.1,293.6c60.3-25.2,122.7-46.5,186.6-60.1,24.3-5.1,48.9-9.2,73.6-10.6,17.4-1,35.7-1.1,52.7,3.5,9.9,2.6,21.1,7.6,25.2,17.6,3.9,9.5,0,20.3-4.7,28.9-7.9,14.3-19.5,26.5-31.3,37.6-16.7,15.6-35.1,29.4-54,42.3-50.1,34.1-104.3,62.2-159.7,86.6-60.9,26.9-124,49.6-188.7,65.2-25.6,6.2-51.6,11.3-77.9,14-19.2,2-39.1,3.1-58.3,0-11.5-1.8-25.1-5-32.8-14.5-6.3-7.7-5.5-17.7-2.1-26.6,5.1-13.5,15.1-25.1,24.9-35.4,14.8-15.4,31.5-28.9,48.8-41.5,47.3-34.4,99.2-62.4,152.2-87s30.2-13.7,45.5-20.1,1.6-6.1-1.3-4.8c-59,24.7-116.7,53.2-170.4,88.1-20.5,13.3-40.6,27.6-59.1,43.7-13.6,11.8-26.9,24.7-37,39.7s-12.4,21.3-11.1,33.2,9.2,19.2,19,23.8c14.6,6.8,31.6,8.1,47.5,8.2,23.3.2,46.6-2.8,69.5-6.7,63.4-11.1,125.3-31,185.1-54.5,61.2-24.1,121-52.5,177.2-86.8,22.4-13.7,44.2-28.4,64.7-44.7s30.3-25.5,42.7-40.9,16.1-22,17.8-35.2-3.1-20.3-11.7-26.7c-11.4-8.4-26.8-10.7-40.5-11.8-21.4-1.7-43,.2-64.2,3.1-61.6,8.4-121.9,26.7-180,48.2-16.6,6.1-33,12.6-49.3,19.4s-1.6,6.1,1.3,4.8Z"/>
        <path class="cls-2" d="M675.1,243.5c13.3,31.9,21.7,65.7,24.5,100.1s.3,66.8-7,99.3c-7.3,32.2-19.4,63.3-35.8,91.9s-37.5,55.2-61.9,77.9-54.1,42.7-85.3,57.3c-31.6,14.8-65.6,24.6-100.3,28.8-33.3,4-67.2,3-100.1-3.1-32.4-6-63.9-16.8-93.1-32.1-29.5-15.4-56.6-35.2-80.1-58.6-24.2-24.1-44.5-52-60.1-82.4-15.9-31-26.9-64.5-32.4-98.9-5.3-33.1-5.4-67.1-.4-100.2,5-32.6,14.8-64.5,29.1-94.3,14.4-29.9,33.3-57.6,55.9-81.9,23.1-24.8,50-46,79.6-62.7s63.8-29.6,98.2-36.6,67.2-8.2,100.8-4.5c32.9,3.6,65.4,12.2,95.8,25.4s58.8,30.9,84,52.5c25.7,22.1,47.9,48.1,65.6,76.9,8.9,14.5,16.6,29.6,23.2,45.3,1.2,2.9,6.1,1.6,4.8-1.3-13.6-32.4-32-62.6-54.9-89.2-22.1-25.7-48.2-48-77-65.9-28.4-17.7-59.6-31-92-39.5s-66.7-12.2-100.4-10.7c-35,1.6-69.7,8.7-102.6,21-33.1,12.4-64.2,29.9-91.9,51.9-26.6,21.1-49.8,46.2-68.9,74.3s-33.5,58.4-43.3,90.5c-9.9,32.3-14.9,66.1-14.7,99.8s5.9,69,16.7,101.8,27.3,65.4,48.3,93.8c20.2,27.5,44.6,51.7,72.1,71.8,27.2,19.8,57.4,35.5,89.2,46.3s65.4,17,99,17.9,69.5-3.4,102.8-13.1c34.2-9.9,66.9-25.2,96.4-45.2s53.5-42.7,74.6-69.5c20.7-26.3,37.4-55.6,49.6-86.8,12.2-31.4,19.6-64.6,22-98.1,2.4-34.3-.6-68.9-8.8-102.3-4.1-16.7-9.5-33-16.1-48.8s-6.1-1.6-4.8,1.3Z"/>
      </g>
    </g>
  </g>
</svg>